<?xml version="1.0" encoding="UTF-8" standalone="no"?>
<svg
   viewBox="0 0 1000 1000"
   version="1.1"
   id="mask-sm"
   xmlns="http://www.w3.org/2000/svg"
   xmlns:svg="http://www.w3.org/2000/svg">
  <defs
     id="defs26824" />
  <path
     id="path26818"
     style="stroke-width:0.999999"
     d="m 731.39375,229.81096 v 110.18741 c 0,13.26656 -1.01646,24.88012 -3.04391,34.97644 -35.7448,-4.26896 -53.62382,-19.06213 -53.62382,-34.97318 v -81.85356 h -18.88978 v 81.85356 c 0,26.51739 22.34321,47.44409 67.01636,53.38791 -11.23912,26.80389 -33.57605,37.90972 -67.01636,37.90972 v 18.88978 c 62.96426,0 94.44729,-31.4821 94.44729,-110.18741 V 229.81096 Z m -434.45362,0.003 c -26.16165,0 -47.22365,21.06199 -47.22365,47.22364 v 125.92779 c 0,26.16166 21.062,47.22364 47.22365,47.22364 26.16165,0 47.22201,-21.06198 47.22201,-47.22364 V 277.03786 c 0,-26.16166 -21.06036,-47.22365 -47.22201,-47.22365 z m 62.96377,0 v 220.37488 h 37.77794 c 0,0 56.66935,4e-5 56.66935,-110.18741 V 229.81421 Z m 110.18743,0 v 220.37488 h 37.77956 c 0,0 56.66772,4e-5 56.66772,-110.18741 V 229.81421 Z m 110.18741,0 v 18.88816 h 37.77957 v 201.48672 h 18.88977 V 248.70237 h 37.77795 v -18.88816 z m -283.33861,18.88821 c 15.69699,0 28.33387,12.63534 28.33387,28.33549 V 402.9652 c 0,15.69384 -12.63689,28.33386 -28.33387,28.33386 -15.69698,0 -28.33387,-12.64002 -28.33387,-28.33386 V 277.03786 c -0.0349,-15.66283 12.67104,-28.3704 28.33387,-28.33549 z m 81.85354,0 h 56.66774 v 91.29926 c 0,91.29816 -40.9276,91.29763 -40.9276,91.29763 h -15.74014 z m 110.18744,0 h 56.66771 v 91.29926 c 0,91.29816 -40.92595,91.29763 -40.92595,91.29763 h -15.74176 z m 91.29763,9.4457 v 192.04097 h 18.88979 V 258.14807 Z m -292.78431,9.44408 v 18.88978 h 18.88977 v -18.88978 z m 110.18741,0 v 18.88978 h 18.88979 v -18.88978 z m 110.18905,0 v 18.88978 h 18.88816 v -18.88978 z m -220.37646,31.48188 v 18.88979 h 18.88977 v -18.88979 z m 110.18741,0 v 18.88979 h 18.88979 v -18.88979 z m 110.18905,0 v 18.88979 h 18.88816 v -18.88979 z m -220.37646,31.48352 v 18.88815 h 18.88977 v -18.88815 z m 110.18741,0 v 18.88815 h 18.88979 v -18.88815 z m 110.18905,0 v 18.88815 h 18.88816 v -18.88795 z m -220.37646,31.48208 v 18.88979 h 18.88977 v -18.88979 z m 110.18741,0 v 18.88979 h 18.88979 v -18.88979 z m -110.18741,31.48189 v 18.88978 h 18.88978 V 393.52132 Z M 0,500.81542 V 1000.2484 H 999.99999 V 500.81542 Z m 280.3762,51.81157 h 3.33386 v 6.66576 h -3.33386 c -10.99776,0 -23.3272,2.77765 -23.3272,6.66575 0,2.11067 3.99887,4.22108 8.22025,6.44285 7.77619,4.11026 18.44081,9.77513 18.44081,23.55012 0,22.3288 -27.99431,29.55019 -29.10524,29.88345 l -3.2224,0.7763 -1.66595,-6.44092 3.2224,-0.78018 c 0.22212,-0.11108 24.10739,-6.331 24.10739,-23.43865 0,-9.77582 -7.55612,-13.77645 -14.88796,-17.66455 -5.77656,-2.99937 -11.77505,-6.21855 -11.77505,-12.32842 0,-5.99878 5.44366,-9.99837 16.10809,-11.99796 6.88759,-1.33306 13.66273,-1.33355 13.88486,-1.33355 z m 101.42545,0.33437 c 0.55547,0 7.55368,-2.7e-4 12.33037,4.66544 2.99945,2.88829 4.55594,6.88715 4.55594,11.77507 v 39.99062 c 0,6.7764 -3.00013,12.11073 -8.55461,14.88796 -3.99926,1.88851 -7.88735,1.99835 -8.3317,1.99835 -5.77666,-0.11109 -16.4405,-3.88895 -16.4405,-16.88631 v -39.99062 c 0,-6.55423 2.99788,-11.77602 8.4412,-14.44214 3.77693,-1.88852 7.44383,-1.99835 7.9993,-1.99837 z m 170.18888,0 h 6.66575 v 33.32682 c 0,11.55322 14.88391,13.10739 18.99418,13.32956 0.66649,-2.88829 0.99918,-6.22064 0.99918,-9.99765 v -36.65873 h 6.66575 v 36.65873 c 0,18.77398 -8.10755,27.77191 -14.88405,31.99328 -7.44297,4.66567 -14.77566,4.66543 -15.1089,4.66543 h -3.33191 v -6.66575 h 3.33191 c 0.66656,0 13.88573,-0.33097 20.10675,-13.55051 -2.44398,-0.22218 -5.99887,-0.7803 -9.55379,-2.00227 -8.99804,-3.22157 -13.88487,-9.55153 -13.88487,-17.77208 z m 139.97106,0 h 6.66576 v 6.66382 h -6.66576 z m -35.21567,0.22096 c 0.55547,0 7.55363,-0.11139 12.33038,4.66543 2.99945,2.8883 4.55398,6.88716 4.55398,11.77508 v 39.99256 c 0,6.77641 -2.99626,11.99734 -8.5507,14.77455 -0.66658,0.33326 -1.33568,0.66751 -2.00227,0.88968 1.5553,0.55544 3.89034,0.99918 7.22303,0.99918 v 6.66576 c -10.55354,0 -14.44262,-3.77746 -15.77568,-6.66576 -5.88757,-0.99979 -14.21924,-5.22127 -14.21924,-16.66341 v -39.99256 c 0,-6.66534 2.99807,-11.77409 8.4412,-14.4402 3.77704,-1.88851 7.44384,-2.00031 7.9993,-2.00031 z m -368.03801,0.11144 h 33.32877 v 73.31746 h -6.66575 v -49.99023 h -19.99727 v 49.99023 h -6.66575 z m 38.32857,0 h 6.6638 v 66.65364 h 19.99531 v -16.99581 h 6.66575 v 23.65963 h -33.32486 z m 76.64933,0 h 4.33304 l 22.32802,13.99635 v -13.99634 h 6.66575 v 73.31745 h -6.66575 v -51.43327 l -19.99531,-12.55329 v 63.98656 h -6.66575 z m 71.65148,0 h 33.32877 v 73.31746 h -6.66575 v -49.99023 h -19.99726 v 49.99023 h -6.66576 z m 38.32663,0 h 33.32681 v 6.66575 h -13.1086 v 66.65171 h -6.66575 v -66.65171 h -13.55246 z m 76.65128,0 h 3.3319 c 3.4438,0 10.55462,-1.2e-4 16.99777,2.33273 8.44268,2.99939 12.99714,9.11069 12.99714,17.66454 0,15.99674 -20.32892,28.4365 -26.66106,31.99132 v 21.32885 h -6.66575 z m 38.32466,0 h 6.66575 v 73.31746 h -6.66575 z m 49.99022,0.10951 h 6.66576 v 53.21263 c 0,12.66408 8.88706,13.44295 10.10911,13.44295 1.11082,0 9.88816,-0.77887 9.88816,-13.44295 v -53.21263 h 6.66575 v 53.21263 c 0,10.22015 -4.44516,15.10875 -8.22221,17.44161 -3.99927,2.55506 -7.88768,2.66513 -8.44315,2.66513 -0.44435,0 -4.33094,-0.11007 -8.44121,-2.66513 -3.77704,-2.33286 -8.22221,-7.33255 -8.22221,-17.44161 z m 38.32663,0.11343 h 33.32681 v 6.66575 h -26.66301 v 9.99765 h 23.10821 v 6.6638 h -23.10821 v 2.88803 c 0,7.10968 1.99981,12.77763 5.99898,16.77683 6.77618,6.66531 17.22102,6.77524 17.33214,6.77524 h 3.33189 v 6.66576 h -3.33189 c -0.55547,0 -13.21982,-0.002 -21.99563,-8.77752 -5.33221,-5.22116 -7.99929,-12.44213 -7.99929,-21.44031 z m -335.26652,6.10848 c -1.8885,0.11108 -9.66328,0.88959 -9.66328,9.77669 v 39.99062 c 0,9.44253 8.66425,10.22056 9.8862,10.22056 1.77749,0 10.1091,-0.66695 10.1091,-10.22056 v -39.99062 c 0,-2.99941 -0.7779,-5.33182 -2.44418,-6.99816 -2.88833,-2.7772 -7.66492,-2.77853 -7.66492,-2.77853 z m 274.94428,0.22289 c -1.88863,0 -9.66329,0.77656 -9.66329,9.77474 v 39.99256 c 0,9.44253 8.66415,10.22057 9.8862,10.22057 1.7774,0 10.11106,-0.77804 10.11106,-10.22057 v -39.99256 c 0,-3.1105 -0.77973,-5.33185 -2.44613,-6.99817 -2.88833,-2.88829 -7.66493,-2.77657 -7.66493,-2.77657 z m -361.26081,0.11144 v 9.99766 h 19.99727 v -9.99766 z m 186.62939,0 v 9.99766 h 19.99726 v -9.99766 z m 114.9779,0.10951 v 37.54841 c 8.10955,-5.1101 19.99726,-14.55061 19.99726,-24.32638 0,-8.44276 -6.33327,-12.66656 -19.99726,-13.22203 z m 94.98064,2.88803 h 6.66576 v 6.66576 h -6.66576 z m -313.49184,3.33386 h 6.6638 v 6.66575 h -6.6638 z m 275.16718,0 h 6.66575 v 6.66575 h -6.66575 z m 38.32466,6.66575 h 6.66576 v 6.66576 h -6.66576 z m -313.49184,3.3319 h 6.6638 v 6.66575 h -6.6638 z m 275.16718,0 h 6.66575 v 6.66575 h -6.66575 z m -275.16718,9.99961 h 6.6638 v 6.6638 h -6.6638 z m 275.16718,0 h 6.66575 v 6.6638 h -6.66575 z m -275.16718,9.99765 h 6.6638 v 6.66576 h -6.6638 z m 275.16718,0 h 6.66575 v 6.66576 h -6.66575 z m -275.16718,9.9957 h 6.6638 v 6.66576 h -6.6638 z m 275.16718,0 h 6.66575 v 6.66576 h -6.66575 z m 73.53839,7.22303 h 13.11055 v 13.10665 h -13.11055 z m -281.16421,24.09762 1.24555,5.15818 -2.5791,0.62571 c -0.0888,0 -8.98283,2.31196 -8.98283,8.09316 0,2.66826 1.86794,5.24704 4.00258,8.27109 3.11297,4.53602 7.02553,10.05094 7.02553,18.41147 0,12.18503 -8.53737,17.52211 -13.0734,18.58942 l -2.58105,0.62181 -1.24359,-5.1582 1.86735,-0.35587 c 0,0 0.26687,-0.17792 0.35587,-0.17792 l 0.35587,-0.0899 c 0.35581,-0.089 8.98283,-2.40049 8.98283,-13.42927 0,-6.67062 -3.11274,-11.03132 -6.04786,-15.30054 -2.57933,-3.64662 -4.98025,-7.02387 -4.98025,-11.38203 0,-9.96148 12.54063,-13.16234 12.98541,-13.25134 z m 122.83054,0 1.2436,5.15818 -2.57909,0.62571 c -0.0888,0 -8.98284,2.31196 -8.98284,8.09316 0,2.66826 1.86792,5.24704 4.00259,8.27109 3.11296,4.53602 7.02554,10.05094 7.02554,18.41147 0,12.18503 -8.53737,17.52211 -13.07341,18.58942 l -2.57909,0.62181 -1.24556,-5.1582 1.86735,-0.35587 c 0,0 0.26707,-0.17792 0.35587,-0.17792 l 0.35588,-0.0899 c 0.35579,-0.089 8.98283,-2.40049 8.98283,-13.42927 0,-6.67062 -3.11274,-11.03132 -6.04787,-15.30054 -2.57932,-3.64662 -4.98025,-7.02387 -4.98025,-11.38203 0,-9.96148 12.54065,-13.16234 12.98542,-13.25134 z m 180.19632,0 1.2436,5.15818 -2.57909,0.62571 c -0.0888,0 -8.98088,2.31196 -8.98088,8.09316 0,2.66826 1.86606,5.24704 4.00063,8.27109 3.11295,4.53602 7.02749,10.05094 7.02749,18.41147 0,12.18503 -8.53932,17.52211 -13.07536,18.58942 l -2.5791,0.62181 -1.24555,-5.1582 1.86735,-0.35587 c 0,0 0.26707,-0.17792 0.35587,-0.17792 l 0.35587,-0.0899 c 0.3558,-0.089 8.98284,-2.40049 8.98284,-13.42927 0,-6.67062 -3.11275,-11.03132 -6.04787,-15.30054 -2.57922,-3.64662 -4.98025,-7.02387 -4.98025,-11.38203 0,-9.96148 12.54074,-13.16234 12.98541,-13.25134 z m -455.473,0.53576 c 0.44467,0 6.04807,-8.6e-4 9.87252,3.7347 2.40148,2.31249 3.6467,5.5152 3.6467,9.42864 v 32.0187 c 0,5.42545 -2.40043,9.69427 -6.8476,11.91779 -3.20182,1.51203 -6.31582,1.60142 -6.67162,1.60142 -4.625,-0.089 -13.16335,-3.11302 -13.16335,-13.51921 v -32.0187 c 0,-5.24757 2.40154,-9.42732 6.75961,-11.56192 3.02411,-1.51193 5.95897,-1.60142 6.40374,-1.60142 z m 28.19405,0 h 5.33808 v 5.33611 h -5.33808 z m -72.04255,0.26593 h 2.66708 c 2.75728,0 8.45064,10e-6 13.60917,1.86734 6.75968,2.40143 10.40632,7.29446 10.40632,14.14297 0,12.80761 -16.27482,22.76886 -21.34449,25.61496 v 17.07598 h -5.33808 z m 92.05545,0 h 10.40632 c 3.20194,0 6.75956,0.0903 9.87252,1.3355 4.18025,1.60094 6.40374,4.89167 6.40374,9.51664 0,3.55768 -2.7586,7.46967 -8.27305,11.82785 5.51445,5.87014 8.27305,17.07783 8.27305,33.3542 v 2.66708 h -5.33612 v -2.66708 c 0,-19.03355 -3.91453,-26.86145 -7.20544,-30.06336 l -0.088,-0.17597 c -3.55773,2.31248 -6.84905,4.17981 -8.7169,5.15818 v 27.74823 h -5.33613 z m 109.48731,0 h 2.66709 c 2.75717,0 8.45051,10e-6 13.60917,1.86734 6.75957,2.40143 10.40632,7.29446 10.40632,14.14297 0,12.80761 -16.27667,22.76886 -21.34645,25.61496 v 17.07598 h -5.33613 z m 30.68515,0 h 10.40633 c 3.20193,0 6.7615,0.0903 9.87447,1.3355 4.18034,1.60094 6.40178,4.89167 6.40178,9.51664 0,3.55768 -2.75674,7.46967 -8.27109,11.82785 5.51435,5.87014 8.27109,17.07783 8.27109,33.3542 v 2.66708 h -5.33612 v -2.66708 c 0,-19.03355 -3.91288,-26.86145 -7.20347,-30.06336 l -0.0899,-0.17597 c -3.55762,2.31248 -6.84721,4.17981 -8.71494,5.15818 v 27.74823 h -5.33809 z m 30.68515,0 h 5.33613 v 58.70126 h -5.33613 z m 9.33871,0 h 26.68257 v 5.33612 h -10.49626 v 53.36514 h -5.33613 v -53.36514 h -10.85018 z m 78.80216,0 h 5.33808 v 53.36708 h 16.00837 v -13.60916 h 5.33612 v 18.94333 H 600.7704 Z m 30.68515,0 h 5.33808 v 58.70126 h -5.33808 z m 9.33871,0 h 2.66904 c 0.17795,0 4.26867,1.9e-4 8.44902,0.71173 6.75958,1.15625 10.23034,3.55785 10.23034,7.29343 0,3.11294 -1.33699,6.13653 -2.84893,8.44902 0.88943,0.44472 1.78048,1.06782 2.58105,1.77935 3.73547,3.29085 5.60205,7.915 5.60205,13.78516 0,13.69704 -6.58228,20.28071 -12.00774,23.39368 -5.86994,3.29085 -11.73897,3.28888 -12.00579,3.28888 h -2.66904 z m 30.68515,0 h 10.40632 c 3.20184,0 6.7615,0.0903 9.87447,1.3355 4.18024,1.60094 6.40178,4.89167 6.40178,9.51664 0,3.55768 -2.75663,7.46967 -8.27109,11.82785 5.51446,5.87014 8.27109,17.07783 8.27109,33.3542 v 2.66708 h -5.33613 v -2.66708 c 0,-19.03355 -3.91255,-26.86145 -7.20347,-30.06336 l -0.0899,-0.17597 c -3.55774,2.31248 -6.8471,4.17981 -8.71495,5.15818 v 27.74823 h -5.33808 z m -360.39068,0.088 h 5.33417 v 42.60491 c 0,10.13937 7.11486,10.76219 8.09315,10.76219 0.88943,0 7.91718,-0.62282 7.91718,-10.76219 v -42.60491 h 5.33807 v 42.60491 c 0,8.18264 -3.55965,12.09528 -6.58363,13.96308 -3.20194,2.04561 -6.31299,2.13523 -6.75765,2.13523 -0.35579,0 -3.47065,-0.0896 -6.76157,-2.13523 -3.02399,-1.8678 -6.57972,-5.86938 -6.57972,-13.96308 z m 88.05092,0.09 h 26.68257 v 5.3361 h -21.34645 v 8.00517 h 18.49947 v 5.33614 h -18.49947 v 2.31316 c 0,5.69228 1.60038,10.2293 4.80232,13.43123 5.42525,5.33649 13.78815,5.42607 13.87705,5.42607 h 2.66708 v 5.33417 h -2.66708 c -0.44467,0 -10.58723,8.6e-4 -17.61371,-7.02554 -4.26922,-4.18026 -6.40178,-9.96164 -6.40178,-17.16593 z m 303.02491,0 h 26.68257 v 5.3361 h -21.34449 v 8.00517 h 18.49947 v 5.33614 h -18.49947 v 2.31316 c 0,5.69228 1.60037,10.2293 4.80231,13.43123 5.42549,5.33649 13.78435,5.42607 13.87315,5.42607 h 2.66903 v 5.33417 h -2.66903 c -0.44468,0 -10.58341,8.6e-4 -17.6098,-7.02554 -4.26901,-4.18026 -6.40374,-9.96164 -6.40374,-17.16593 z m -408.68757,4.89224 c -1.51206,0.089 -7.73729,0.71188 -7.73729,7.82723 v 32.0187 c 0,7.56006 6.93681,8.18309 7.91522,8.18309 1.42308,0 8.09315,-0.5341 8.09315,-8.18309 v -32.0187 c 0,-2.40143 -0.62125,-4.26986 -1.95534,-5.604 -2.3125,-2.22355 -6.13781,-2.22323 -6.13781,-2.22323 z m 53.63106,0.26594 v 19.56903 c 8.2716,-4.62495 16.01033,-10.76216 16.01033,-14.05301 0,-4.09131 -2.75741,-5.51602 -10.94014,-5.51602 z m 140.17442,0 v 19.56903 c 8.27162,-4.62495 16.00837,-10.76216 16.00837,-14.05301 0,-4.09131 -2.75748,-5.51602 -10.94013,-5.51602 z m 189.53502,0 v 19.56903 c 8.27142,-4.62495 16.00836,-10.76216 16.00836,-14.05301 0,-4.09131 -2.75747,-5.51602 -10.94012,-5.51602 z m -421.76294,0.0899 v 30.06336 c 6.49273,-4.09133 16.00837,-11.65223 16.00837,-19.4791 0,-6.75957 -5.06857,-10.13953 -16.00837,-10.58426 z m 201.54081,0 v 30.06336 c 6.49285,-4.09133 16.01032,-11.65223 16.01032,-19.4791 0,-6.75957 -5.0704,-10.13953 -16.01032,-10.58426 z m 189.53502,0 v 7.82723 c 2.13466,0 5.07013,0.17625 8.1831,1.06567 1.24523,-1.77884 2.4911,-4.18015 2.4911,-6.22581 -0.53364,-1.06729 -5.15975,-2.3113 -10.6742,-2.66709 z m -324.37136,2.31317 h 5.33808 v 5.33614 h -5.33808 z m -30.86113,2.6671 h 5.33417 v 5.33612 h -5.33417 z m 30.86113,5.33612 h 5.33808 v 5.33612 h -5.33808 z m -30.86113,2.66904 h 5.33417 v 5.33613 h -5.33417 z m 355.23249,0.17598 v 34.51175 c 5.15877,-0.88942 16.01228,-4.80414 16.01228,-21.08052 0,-4.26918 -1.24631,-7.47104 -3.73666,-9.69457 -3.6466,-3.29085 -9.16265,-3.73666 -12.27562,-3.73666 z m -355.23249,7.82917 h 5.33417 v 5.33614 h -5.33417 z m 0,8.00321 h 5.33417 v 5.33808 h -5.33417 z m 0,8.00517 h 5.33417 v 5.33612 h -5.33417 z m 116.42485,5.78195 h 10.49432 v 10.4943 h -10.49432 z m 303.02492,0 h 10.49626 v 10.4943 h -10.49626 z" />
</svg>
