<?xml version="1.0" encoding="UTF-8" standalone="no"?>
<svg
   viewBox="0 0 1600 1000"
   version="1.1"
   id="mask"
   xmlns="http://www.w3.org/2000/svg"
   xmlns:svg="http://www.w3.org/2000/svg">
  <defs
     id="defs8" />
  <path
     d="M800 0v367.71484h-22.67773v132.28321c0 15.92691-1.22028 29.86929-3.6543 41.99023-42.91273-5.12502-64.37695-22.88462-64.37695-41.98633v-98.26757h-22.67774v98.26757c0 31.83494 26.82362 56.95801 80.45508 64.09375-13.49291 32.17887-40.30897 45.51172-80.45508 45.51172v22.67774C762.20378 632.28516 800 594.49007 800 500.00195V1000h799.4746V0H800zM255.74805 367.71875c-31.40785 0-56.69336 25.28551-56.69336 56.69336V575.5918c0 31.40786 25.28551 56.69336 56.69336 56.69336 31.40786 0 56.6914-25.2855 56.6914-56.69336V424.41211c0-31.40785-25.28354-56.69336-56.6914-56.69336zm75.58984 0v264.56641h45.35352s68.0332.00016 68.0332-132.28321v-132.2832H331.33789zm132.2832 0v264.56641h45.35547s68.03125.00016 68.03125-132.28321v-132.2832H463.62109zm132.28321 0v22.67578h45.35547v241.89063h22.67773V390.39453h45.35352v-22.67578H595.9043zm-340.15625 22.67578c18.84471 0 34.01562 15.16909 34.01562 34.01758V575.5918c0 18.84093-15.17091 34.01562-34.01562 34.01562-18.8447 0-34.01563-15.17469-34.01563-34.01562V424.41211c-.0419-18.8037 15.21193-34.05948 34.01563-34.01758zm98.26757 0h68.03126v109.60742c0 109.60621-49.13477 109.60547-49.13477 109.60547h-18.89649V390.39453zm132.28321 0h68.03125v109.60742c0 109.60621-49.13281 109.60547-49.13281 109.60547h-18.89844V390.39453zm109.60547 11.33985v230.55078h22.67773V401.73438H595.9043zm-351.4961 11.33789V435.75h22.67774v-22.67773H244.4082zm132.28321 0V435.75h22.67773v-22.67773h-22.67773zm132.28515 0V435.75h22.67578v-22.67773h-22.67578zm384.7793 16.01953h3.19141v6.38281h-3.19141c-10.53119 0-22.33789 2.65967-22.33789 6.38281 0 2.02114 3.8288 4.04242 7.87109 6.16992 7.4463 3.93591 17.65821 9.3602 17.65821 22.55078 0 21.38154-26.80535 28.29612-27.86915 28.61524l-3.08593.74414-1.59571-6.16797 3.08594-.74609c.2127-.10638 23.08399-6.06344 23.08399-22.44532 0-9.36107-7.23507-13.1909-14.25586-16.91406-5.5315-2.87214-11.27539-5.95596-11.27539-11.80664 0-5.74428 5.21183-9.57351 15.42382-11.48828 6.5954-1.27651 13.08418-1.27734 13.29688-1.27734zm97.12109.32031c.5319 0 7.2345-.00099 11.80855 4.4668 2.8722 2.76576 4.3614 6.59484 4.3614 11.27539v38.29492c0 6.48891-2.8726 11.59646-8.19143 14.25586-3.8296 1.80839-7.55302 1.91406-7.97852 1.91406-5.53159-.10638-15.74218-3.72395-15.74218-16.16992V445.1543c0-6.27619 2.87159-11.27511 8.08398-13.82813 3.6167-1.8084 7.1263-1.91406 7.6582-1.91406zm162.96875 0h6.3828v31.91211c0 11.06308 14.2536 12.55287 18.1895 12.76562.6382-2.76576.957-5.95744.957-9.57422v-35.10351h6.3828v35.10351c0 17.97752-7.7649 26.59445-14.2539 30.63672-7.1272 4.46779-14.1477 4.4668-14.4668 4.4668h-3.1914v-6.38281h3.1914c.6383 0 13.2968-.31786 19.2539-12.97656-2.3403-.21276-5.7443-.74589-9.1484-1.91602-8.6164-3.08491-13.2969-9.14773-13.2969-17.01953v-31.91211zm134.0332 0h6.3828v6.38086h-6.3828v-6.38086zm-33.7207.21094c.5319 0 7.2325-.10542 11.8066 4.46875 2.8722 2.76576 4.3614 6.59484 4.3614 11.27539v38.29492c0 6.48891-2.8707 11.48904-8.1895 14.14844-.6383.31912-1.2777.63881-1.916.85156 1.4893.53188 3.7247.95703 6.916.95703v6.38281c-10.1058 0-13.829-3.61704-15.1055-6.38281-5.6378-.95739-13.6171-5.00032-13.6171-15.95703v-38.29492c0-6.38256 2.8717-11.27511 8.0839-13.82813 3.6168-1.80839 7.1283-1.91601 7.6602-1.91601zm-352.42382.10742h31.91406v70.20703h-6.38282v-47.86914h-19.14843v47.86914h-6.38281v-70.20703zm36.70117 0h6.38086v63.82617h19.14843v-16.27539h6.38282v22.65625h-31.91211v-70.20703zm73.39845 0h4.1484l21.3809 13.40234v-13.40234h6.3828v70.20703h-6.3828v-49.25195l-19.1465-12.01953v61.27148h-6.3828v-70.20703zm68.6113 0h31.9141v70.20703h-6.3828v-47.86914h-19.1485v47.86914h-6.3828v-70.20703zm36.7012 0h31.9121v6.38281h-12.5527v63.82422h-6.3829v-63.82422h-12.9765v-6.38281zm73.3984 0h3.1914c3.2977 0 10.1056.0005 16.2754 2.23437 8.0845 2.87215 12.4453 8.72311 12.4453 16.91407 0 15.3181-19.4658 27.23075-25.5293 30.63476v20.42383h-6.3828v-70.20703zm36.6992 0h6.3829v70.20703h-6.3829v-70.20703zm47.8692.10547h6.3828v50.95508c0 12.12682 8.5095 12.87109 9.6797 12.87109 1.0637 0 9.4687-.74427 9.4687-12.87109v-50.95508h6.3828v50.95508c0 9.78657-4.2562 14.46727-7.873 16.70117-3.8296 2.44665-7.5521 2.55273-8.084 2.55273-.4255 0-4.1481-.10608-8.084-2.55273-3.6168-2.2339-7.873-7.02098-7.873-16.70117v-50.95508zm36.7012.10742h31.9121v6.38281h-25.5313v9.57422h22.127v6.38086h-22.127v2.76563c0 6.80805 1.9147 12.23491 5.7442 16.06445 6.4887 6.38254 16.4893 6.48828 16.5957 6.48828h3.1914v6.38281h-3.1914c-.5319 0-12.659-.00059-21.0625-8.4043-5.106-4.99965-7.6582-11.9148-7.6582-20.53124v-25.10352zm-321.04302 5.84961c-1.80839.10637-9.2539.85127-9.2539 9.36133v38.29492c0 9.04194 8.2967 9.78711 9.4668 9.78711 1.70209 0 9.67972-.6388 9.67972-9.78711V445.1543c0-2.87216-.74428-5.10554-2.33988-6.70118-2.7658-2.65938-7.33984-2.66015-7.33984-2.66015h-.2129zm263.27932.21289c-1.8084 0-9.2539.74489-9.2539 9.36133v38.29492c0 9.04194 8.2966 9.78711 9.4668 9.78711 1.702 0 9.6816-.74517 9.6816-9.78711v-38.29492c0-2.97853-.7461-5.10555-2.3418-6.70117-2.7658-2.76578-7.3398-2.66016-7.3398-2.66016h-.2129zm-345.93361.10742v9.57422h19.14843v-9.57422h-19.14843zm178.71091 0v9.57422h19.1485v-9.57422h-19.1485zm110.0996.10547v35.95508c7.7655-4.8933 19.1485-13.93386 19.1485-23.29492 0-8.08458-6.0642-12.12828-19.1485-12.66016zm90.9512 2.76563h6.3828v6.38281h-6.3828v-6.38281zm-300.1914 3.1914h6.38086v6.38281h-6.38086v-6.38281zm263.4922 0h6.3828v6.38281h-6.3828v-6.38281zm36.6992 6.38281h6.3828v6.38282h-6.3828v-6.38282zm-1043.4707 2.3086v22.67773h22.67774v-22.67773H244.4082zm132.28321 0v22.67773h22.67773v-22.67773h-22.67773zm132.28515 0v22.67773h22.67578v-22.67773h-22.67578zm478.71094.88281h6.38086v6.38281h-6.38086V451.75zm263.4922 0h6.3828v6.38281h-6.3828V451.75zm-263.4922 9.57422h6.38086v6.38281h-6.38086v-6.38281zm263.4922 0h6.3828v6.38281h-6.3828v-6.38281zm-263.4922 9.57422h6.38086v6.38281h-6.38086v-6.38281zm263.4922 0h6.3828v6.38281h-6.3828v-6.38281zm-263.4922 9.57226h6.38086v6.38282h-6.38086v-6.38282zm263.4922 0h6.3828v6.38282h-6.3828v-6.38282zm70.4199 6.91602h12.5527v12.55078h-12.5527v-12.55078zm-1077.1914 1.27734v22.67578h22.67774v-22.67578H244.4082zm132.28321 0v22.67578h22.67773v-22.67578h-22.67773zm132.28515 0v22.67578h22.67578v-22.67578h-22.67578zm543.38674 21.79883 1.1933 4.93945-2.4707.59766c-.085 0-8.6015 2.21406-8.6015 7.75 0 2.55506 1.7879 5.02418 3.832 7.91992 2.9809 4.3436 6.7285 9.62502 6.7285 17.63086 0 11.66809-8.1759 16.77876-12.5195 17.80078l-2.4707.59571-1.1914-4.93946 1.789-.34179s.2547-.16993.3399-.16993l.3418-.08593c.3407-.0852 8.6015-2.29848 8.6015-12.85938 0-6.38763-2.9804-10.5623-5.791-14.65039-2.4699-3.49192-4.7695-6.72712-4.7695-10.90039 0-9.53887 12.0077-12.60429 12.4336-12.68945l2.5547-.59766zm117.6191 0 1.1914 4.93945-2.4707.59766c-.085 0-8.6015 2.21406-8.6015 7.75 0 2.55506 1.7898 5.02418 3.8339 7.91992 2.9809 4.3436 6.7266 9.62502 6.7266 17.63086 0 11.66809-8.1759 16.77876-12.5195 17.80078l-2.4688.59571-1.1933-4.93946 1.789-.34179s.2548-.16993.3399-.16993l.3418-.08593c.3407-.0852 8.6015-2.29848 8.6015-12.85938 0-6.38763-2.9804-10.5623-5.791-14.65039-2.4699-3.49192-4.7695-6.72712-4.7695-10.90039 0-9.53887 12.0077-12.60429 12.4336-12.68945l2.5566-.59766zm172.5508 0 1.1914 4.93945-2.4687.59766c-.085 0-8.6016 2.21406-8.6016 7.75 0 2.55506 1.788 5.02418 3.832 7.91992 2.9809 4.3436 6.7285 9.62502 6.7285 17.63086 0 11.66809-8.1759 16.77876-12.5195 17.80078l-2.4707.59571-1.1914-4.93946 1.7871-.34179s.2566-.16993.3418-.16993l.3399-.08593c.3407-.0852 8.6015-2.29848 8.6015-12.85938 0-6.38763-2.9804-10.5623-5.791-14.65039-2.4698-3.49192-4.7695-6.72712-4.7695-10.90039 0-9.53887 12.0097-12.60429 12.4355-12.68945l2.5547-.59766zm-436.14843.51172c.4258 0 5.79092-.00091 9.45312 3.57617 2.2996 2.21439 3.49219 5.28188 3.49219 9.0293v30.66015c0 5.19529-2.29815 9.28291-6.55664 11.41211-3.066 1.44787-6.04797 1.53321-6.38867 1.53321-4.4288-.0852-12.60547-2.98061-12.60547-12.94532v-30.66015c0-5.02495 2.29946-9.02822 6.47265-11.07227 2.8958-1.44786 5.70692-1.5332 6.13282-1.5332zm26.99804 0h5.11133v5.10937h-5.11133v-5.10937zm-68.98633.25586h2.55469c2.6403 0 8.09156-.001 13.03125 1.78711 6.4729 2.29955 9.96485 6.98498 9.96485 13.54297 0 12.26425-15.58486 21.80392-20.43946 24.52929v16.35157h-5.11133v-56.21094zm88.1504 0h9.96484c3.0661 0 6.47223.085 9.45312 1.27734 4.0029 1.53304 6.13282 4.68453 6.13282 9.11328 0 3.40675-2.64138 7.15291-7.92188 11.32618 5.2805 5.62112 7.92188 16.3536 7.92188 31.93945v2.55469h-5.11133v-2.55469c0-18.22606-3.74714-25.72103-6.89844-28.78711l-.08398-.16992c-3.4068 2.21438-6.55906 4.00259-8.34766 4.93945v26.57227h-5.10937v-56.21094zm104.84182 0h2.5547c2.6402 0 8.0914-.001 13.0312 1.78711 6.4728 2.29955 9.9649 6.98498 9.9649 13.54297 0 12.26425-15.5868 21.80392-20.4415 24.52929v16.35157h-5.1093v-56.21094zm29.3828 0h9.9648c3.0661 0 6.4742.085 9.4551 1.27734 4.003 1.53304 6.1309 4.68453 6.1309 9.11328 0 3.40675-2.6396 7.15291-7.92 11.32618 5.2804 5.62112 7.92 16.3536 7.92 31.93945v2.55469h-5.1094v-2.55469c0-18.22606-3.7474-25.72103-6.8984-28.78711l-.086-.16992c-3.4067 2.21438-6.5572 4.00259-8.3457 4.93945v26.57227h-5.1113v-56.21094zm29.3828 0h5.1113v56.21094h-5.1113v-56.21094zm8.9434 0h25.5507v5.10937h-10.0507v51.10157h-5.1094v-51.10157h-10.3906v-5.10937zm75.4589 0h5.1114v51.10156h15.33v-13.03125h5.1094v18.14063h-25.5508v-56.21094zm29.3829 0h5.1113v56.21094h-5.1113v-56.21094zm8.9433 0h2.5547c.1704 0 4.0888.00029 8.0918.68164 6.4728 1.1072 9.7949 3.40533 9.7949 6.98242 0 2.9809-1.2787 5.87742-2.7265 8.0918.8517.42585 1.7041 1.02177 2.4707 1.70312 3.577 3.15124 5.3652 7.58006 5.3652 13.20117 0 13.11596-6.3028 19.4195-11.4981 22.4004-5.6209 3.15123-11.2425 3.15039-11.498 3.15039h-2.5547v-56.21094zm29.3828 0h9.9649c3.066 0 6.4741.085 9.455 1.27734 4.0029 1.53304 6.1309 4.68453 6.1309 9.11328 0 3.40675-2.6394 7.15291-7.9199 11.32618 5.2805 5.62112 7.9199 16.3536 7.9199 31.93945v2.55469h-5.1094v-2.55469c0-18.22606-3.7471-25.72103-6.8984-28.78711l-.0859-.16992c-3.4068 2.21438-6.5571 4.00259-8.3457 4.93945v26.57227h-5.1114v-56.21094zm-345.10154.08398h5.10938v40.79688c0 9.70921 6.8132 10.30469 7.75 10.30469.8517 0 7.58008-.59548 7.58008-10.30469v-40.79688h5.11132v40.79688c0 7.8355-3.40703 11.58254-6.30273 13.37109-3.0661 1.95888-6.04686 2.04492-6.47266 2.04492-.3407 0-3.32331-.0861-6.47461-2.04492-2.89569-1.78855-6.30078-5.62076-6.30078-13.37109v-40.79688zm84.31644.08594h25.5507v5.10938h-20.4414v7.66601h17.7149v5.10938h-17.7149V531.5c0 5.45078 1.5336 9.79525 4.5997 12.86133 5.1951 5.1101 13.202 5.19531 13.2871 5.19531h2.5546v5.10938h-2.5546c-.4258 0-10.1369-.00021-16.8653-6.72852-4.0881-4.00293-6.1308-9.53885-6.1308-16.4375v-20.09961zm290.1679 0h25.5508v5.10938h-20.4394v7.66601h17.7148v5.10938h-17.7148V531.5c0 5.45078 1.5335 9.79525 4.5996 12.86133 5.1953 5.1101 13.2 5.19531 13.2851 5.19531h2.5547v5.10938h-2.5547c-.4258 0-10.135-.00021-16.8633-6.72852-4.0879-4.00293-6.1328-9.53885-6.1328-16.4375v-20.09961zm-391.34762 4.68359c-1.4479.0852-7.41016.68261-7.41016 7.4961v30.66015c0 7.23934 6.64318 7.83594 7.58008 7.83594 1.3627 0 7.75-.51144 7.75-7.83594v-30.66015c0-2.29955-.59555-4.08966-1.87304-5.36719-2.2144-2.12922-5.87696-2.12891-5.87696-2.12891h-.16992zm51.35547.25586v18.73828c7.92069-4.42875 15.33008-10.30578 15.33008-13.45703 0-3.91774-2.63902-5.28125-10.47461-5.28125h-4.85547zm134.22655 0v18.73828c7.9207-4.42875 15.3301-10.30578 15.3301-13.45703 0-3.91774-2.6411-5.28125-10.4766-5.28125h-4.8535zm181.4942 0v18.73828c7.9205-4.42875 15.33-10.30578 15.33-13.45703 0-3.91774-2.641-5.28125-10.4765-5.28125h-4.8535zm-403.86919.08594v28.78711c6.2173-3.91776 15.33008-11.15752 15.33008-18.65234 0-6.47282-4.85439-9.70892-15.33008-10.13477zm192.99019 0v28.78711c6.2174-3.91776 15.3321-11.15752 15.3321-18.65234 0-6.47282-4.8563-9.70892-15.3321-10.13477zm181.4942 0v7.49414c2.044 0 4.855.16981 7.8359 1.02149 1.1924-1.70337 2.3848-4.00206 2.3848-5.96094-.511-1.02202-4.9402-2.21401-10.2207-2.55469zm-310.60939 2.21484h5.11133V523.75h-5.11133v-5.10938zm-29.55273 2.55469h5.10937v5.10938h-5.10937v-5.10938zm29.55273 5.10938h5.11133v5.10937h-5.11133v-5.10937zm-688.97461.15429v22.67774h22.67774v-22.67774H244.4082zm132.28321 0v22.67774h22.67773v-22.67774h-22.67773zm527.13867 2.4004h5.10937v5.11132h-5.10937v-5.11132zm340.16212.16992v33.04687c4.9398-.85169 15.332-4.59969 15.332-20.18555 0-4.08807-1.1934-7.15399-3.5781-9.2832-3.4919-3.15123-8.773-3.57812-11.7539-3.57812zm-340.16212 7.49609h5.10937v5.10938h-5.10937v-5.10938zm0 7.66406h5.10937v5.11133h-5.10937v-5.11133zm0 7.66602h5.10937v5.10937h-5.10937v-5.10937zm111.48632 5.53515h10.0488v10.05079h-10.0488v-10.05079zm290.168 0h10.0508v10.05079h-10.0508v-10.05079zm-1061.0762 6.86329v22.67773h22.67774v-22.67773H244.4082z"
     paint-order="markers stroke fill"
     id="path2" />
</svg>
