<?xml version="1.0" encoding="UTF-8" standalone="no"?>
<svg
   viewBox="0 0 1000 1000"
   version="1.1"
   id="mask-sm"
   xmlns="http://www.w3.org/2000/svg"
   xmlns:svg="http://www.w3.org/2000/svg">
  <defs
     id="defs26824" />
  <path
     id="path26818"
     style="stroke-width:0.999999"
     d="m 731.13162,281 v 110.06259 c 0,13.25153 -1.0153,24.85193 -3.04046,34.93682 -35.70431,-4.26413 -53.56307,-19.04054 -53.56307,-34.93357 v -81.76083 h -18.86838 v 81.76083 c 0,26.48736 22.3179,47.39035 66.94043,53.32744 -11.22639,26.77352 -33.538,37.86677 -66.94043,37.86677 v 18.86838 C 718.55264,501.12843 750,469.682 750,391.06584 V 281 Z m -433.96147,0.003 C 271.03814,281.003 250,302.04113 250,328.17314 v 125.78514 c 0,26.13202 21.03814,47.17014 47.17015,47.17014 26.13202,0 47.16853,-21.03812 47.16853,-47.17014 V 328.1734 c 0,-26.13202 -21.03651,-47.17015 -47.16853,-47.17015 z m 62.89245,0 v 220.12523 h 37.73514 c 0,0 56.60515,4e-5 56.60515,-110.06259 V 281.00325 Z m 110.0626,0 v 220.12523 h 37.73677 c 0,0 56.60353,4e-5 56.60353,-110.06259 V 281.00325 Z m 110.06259,0 v 18.86676 h 37.73677 v 201.25847 h 18.86838 V 299.87001 h 37.73515 v -18.86676 z m -283.01764,18.86681 c 15.67921,0 28.30177,12.62103 28.30177,28.30339 v 125.78489 c 0,15.67606 -12.62256,28.30176 -28.30177,28.30176 -15.6792,0 -28.30176,-12.6257 -28.30176,-28.30176 V 328.1734 c -0.0349,-15.64509 12.65668,-28.33826 28.30176,-28.30339 z m 81.76083,0 h 56.60353 v 91.19583 c 0,91.19474 -40.88123,91.19421 -40.88123,91.19421 h -15.7223 z m 110.0626,0 h 56.60353 v 91.19583 c 0,91.19474 -40.8796,91.19421 -40.8796,91.19421 h -15.72393 z m 91.19421,9.435 v 191.82342 h 18.86839 V 309.30501 Z m -292.45264,9.43338 v 18.86838 h 18.86838 v -18.86838 z m 110.06259,0 v 18.86838 h 18.86839 v -18.86838 z m 110.06423,0 v 18.86838 h 18.86676 v -18.86838 z m -220.12682,31.44622 v 18.86839 h 18.86838 v -18.86839 z m 110.06259,0 v 18.86839 h 18.86839 v -18.86839 z m 110.06423,0 v 18.86839 h 18.86676 v -18.86839 z m -220.12682,31.44785 v 18.86676 h 18.86838 v -18.86676 z m 110.06259,0 v 18.86676 h 18.86839 v -18.86676 z m 110.06423,0 v 18.86676 h 18.86676 v -18.86656 z m -220.12682,31.44642 v 18.86839 h 18.86838 v -18.86839 z m 110.06259,0 v 18.86839 h 18.86839 v -18.86839 z m -110.06259,31.44623 v 18.86838 h 18.86838 V 444.52491 Z M 0.56640625,500.56641 V 999.43359 H 999.43359 V 500.56641 Z M 280.625,677.70898 h 3.33008 v 6.65821 H 280.625 c -10.98531,0 -23.30078,2.7745 -23.30078,6.6582 0,2.10828 3.99434,4.2163 8.21094,6.43555 7.76738,4.10561 18.41992,9.76406 18.41992,23.52344 0,22.30351 -27.9626,29.51672 -29.07227,29.8496 l -3.21875,0.7754 -1.66406,-6.4336 3.21875,-0.7793 c 0.22187,-0.11097 24.08008,-6.32384 24.08008,-23.4121 0,-9.76474 -7.54756,-13.76084 -14.8711,-17.64454 -5.77001,-2.99599 -11.76171,-6.2115 -11.76171,-12.31445 0,-5.99198 5.4375,-9.98704 16.08984,-11.98437 6.87979,-1.33155 13.64726,-1.33204 13.86914,-1.33204 z m 101.31055,0.33399 c 0.55484,0 7.54512,-2.9e-4 12.3164,4.66015 2.99605,2.88503 4.55078,6.87936 4.55078,11.76172 v 39.94532 c 0,6.76872 -2.99673,12.09701 -8.54492,14.87109 -3.99473,1.88637 -7.87841,1.99609 -8.32226,1.99609 -5.77012,-0.11097 -16.42188,-3.88454 -16.42188,-16.86718 v -39.94532 c 0,-6.54681 2.99449,-11.76268 8.43164,-14.42578 3.77265,-1.88638 7.4354,-1.99609 7.99024,-1.99609 z m 169.99609,0 h 6.6582 v 33.28906 c 0,11.54013 14.86704,13.09253 18.97266,13.31445 0.66573,-2.88502 0.99805,-6.21359 0.99805,-9.98632 v -36.61719 h 6.6582 v 36.61719 c 0,18.75271 -8.09837,27.74045 -14.86719,31.95703 -7.43454,4.6604 -14.75893,4.66015 -15.09179,4.66015 h -3.32813 v -6.6582 h 3.32813 c 0.66581,0 13.87,-0.3306 20.08398,-13.53516 -2.44122,-0.22193 -5.99208,-0.77941 -9.54297,-2 -8.98785,-3.21792 -13.86914,-9.54071 -13.86914,-17.75195 z m 139.8125,0 h 6.6582 v 6.65625 h -6.6582 z m -35.17578,0.2207 c 0.55484,0 7.54507,-0.11125 12.31641,4.66016 2.99605,2.88503 4.54882,6.87934 4.54882,11.76172 v 39.94726 c 0,6.76873 -2.99286,11.98374 -8.54101,14.75781 -0.66583,0.33288 -1.33417,0.66676 -2,0.88868 1.55353,0.55482 3.88593,0.99804 7.21484,0.99804 v 6.65821 c -10.54158,0 -14.42626,-3.77317 -15.75781,-6.65821 -5.8809,-0.99866 -14.20313,-5.21536 -14.20313,-16.64453 v -39.94726 c 0,-6.65779 2.99468,-11.76073 8.43164,-14.42383 3.77276,-1.88637 7.43541,-1.99805 7.99024,-1.99805 z M 288.94727,678.375 h 33.29101 v 73.23438 h -6.6582 v -49.9336 h -19.97461 v 49.9336 h -6.6582 z m 38.28515,0 h 6.65625 v 66.57812 h 19.97266 v -16.97656 h 6.6582 v 23.63282 h -33.28711 z m 76.5625,0 h 4.32813 l 22.30273,13.98047 V 678.375 h 6.6582 v 73.23438 h -6.6582 v -51.375 l -19.97266,-12.53907 v 63.91407 h -6.6582 z m 71.57031,0 h 33.29102 v 73.23438 h -6.6582 v -49.9336 h -19.97461 v 49.9336 h -6.65821 z m 38.28321,0 h 33.28906 v 6.6582 h -13.09375 v 66.57618 h -6.6582 V 685.0332 h -13.53711 z m 76.56445,0 h 3.32813 c 3.4399,0 10.54266,-1.2e-4 16.97851,2.33008 8.43312,2.996 12.98242,9.10037 12.98242,17.64453 0,15.97862 -20.30589,28.40428 -26.63086,31.95508 v 21.30469 h -6.6582 z m 38.28125,0 h 6.6582 v 73.23438 h -6.6582 z m 49.93359,0.10938 h 6.65821 v 53.15234 c 0,12.64974 8.87699,13.42773 10.09765,13.42773 1.10957,0 9.87696,-0.77799 9.87696,-13.42773 v -53.15234 h 6.6582 v 53.15234 c 0,10.20857 -4.44012,15.09165 -8.21289,17.42187 -3.99474,2.55216 -7.87875,2.66211 -8.43359,2.66211 -0.44385,0 -4.32603,-0.10995 -8.43165,-2.66211 -3.77276,-2.33022 -8.21289,-7.32426 -8.21289,-17.42187 z m 38.28321,0.11328 H 750 v 6.6582 h -26.63281 v 9.98633 h 23.08203 v 6.65625 h -23.08203 v 2.88476 c 0,7.10162 1.99755,12.76315 5.99219,16.75782 6.7685,6.65776 17.20151,6.76757 17.3125,6.76757 H 750 v 6.65821 h -3.32812 c -0.55484,0 -13.20484,-0.002 -21.97071,-8.76758 -5.32617,-5.21525 -7.99023,-12.42804 -7.99023,-21.41602 z m -334.88672,6.10156 c -1.88637,0.11096 -9.65234,0.88861 -9.65234,9.76562 v 39.94532 c 0,9.43183 8.65444,10.20898 9.875,10.20898 1.77548,0 10.09765,-0.66619 10.09765,-10.20898 v -39.94532 c 0,-2.996 -0.77702,-5.32578 -2.44141,-6.99023 -2.88506,-2.77406 -7.65624,-2.77539 -7.65624,-2.77539 z m 274.63281,0.22266 c -1.88649,0 -9.65234,0.77568 -9.65234,9.76367 v 39.94726 c 0,9.43183 8.65434,10.20899 9.875,10.20899 1.77539,0 10.09961,-0.77716 10.09961,-10.20899 v -39.94726 c 0,-3.10698 -0.77885,-5.32581 -2.44336,-6.99024 -2.88506,-2.88503 -7.65625,-2.77343 -7.65625,-2.77343 z m -360.85156,0.11132 v 9.98633 h 19.97461 v -9.98633 z m 186.41797,0 v 9.98633 h 19.97461 v -9.98633 z m 114.84765,0.10938 v 37.50586 c 8.10036,-5.1043 19.97461,-14.53412 19.97461,-24.29883 0,-8.43319 -6.3261,-12.65221 -19.97461,-13.20703 z m 94.87305,2.88476 h 6.6582 v 6.65821 h -6.6582 z m -313.13672,3.33008 h 6.65625 v 6.6582 h -6.65625 z m 274.85547,0 h 6.6582 v 6.6582 h -6.6582 z m 38.28125,6.6582 h 6.6582 v 6.65821 h -6.6582 z m -313.13672,3.32813 h 6.65625 v 6.6582 h -6.65625 z m 274.85547,0 h 6.6582 v 6.6582 h -6.6582 z m -274.85547,9.98828 h 6.65625 v 6.65625 h -6.65625 z m 274.85547,0 h 6.6582 v 6.65625 h -6.6582 z m -274.85547,9.98633 h 6.65625 v 6.6582 h -6.65625 z m 274.85547,0 h 6.6582 v 6.6582 h -6.6582 z m -274.85547,9.98437 h 6.65625 v 6.65821 h -6.65625 z m 274.85547,0 h 6.6582 v 6.65821 h -6.6582 z m 73.45508,7.21485 h 13.0957 v 13.0918 h -13.0957 z m -280.8457,24.07031 1.24414,5.15234 -2.57618,0.625 c -0.0887,0 -8.97265,2.30934 -8.97265,8.08399 0,2.66524 1.86582,5.24111 3.99804,8.26172 3.10945,4.53089 7.01758,10.03957 7.01758,18.39062 0,12.17123 -8.5277,17.50226 -13.05859,18.56836 l -2.57813,0.6211 -1.24218,-5.15235 1.86523,-0.35547 c 0,0 0.26657,-0.17773 0.35547,-0.17773 l 0.35547,-0.0898 c 0.3554,-0.0889 8.97265,-2.39777 8.97265,-13.41406 0,-6.66306 -3.10921,-11.01882 -6.04101,-15.2832 -2.57641,-3.64249 -4.97461,-7.01592 -4.97461,-11.36914 0,-9.95019 12.52643,-13.14743 12.9707,-13.23633 z m 122.6914,0 1.24219,5.15234 -2.57617,0.625 c -0.0887,0 -8.97266,2.30934 -8.97266,8.08399 0,2.66524 1.8658,5.24111 3.99805,8.26172 3.10944,4.53089 7.01758,10.03957 7.01758,18.39062 0,12.17123 -8.5277,17.50226 -13.0586,18.56836 l -2.57617,0.6211 -1.24414,-5.15235 1.86523,-0.35547 c 0,0 0.26677,-0.17773 0.35547,-0.17773 l 0.35547,-0.0898 c 0.35539,-0.0889 8.97266,-2.39777 8.97266,-13.41406 0,-6.66306 -3.10922,-11.01882 -6.04102,-15.2832 -2.5764,-3.64249 -4.97461,-7.01592 -4.97461,-11.36914 0,-9.95019 12.52644,-13.14743 12.97071,-13.23633 z m 179.99219,0 1.24219,5.15234 -2.57617,0.625 c -0.0887,0 -8.97071,2.30934 -8.97071,8.08399 0,2.66524 1.86395,5.24111 3.9961,8.26172 3.10943,4.53089 7.01953,10.03957 7.01953,18.39062 0,12.17123 -8.52964,17.50226 -13.06055,18.56836 l -2.57617,0.6211 -1.24414,-5.15235 1.86523,-0.35547 c 0,0 0.26677,-0.17773 0.35547,-0.17773 l 0.35547,-0.0898 c 0.35539,-0.0889 8.97266,-2.39777 8.97266,-13.41406 0,-6.66306 -3.10922,-11.01882 -6.04102,-15.2832 -2.5763,-3.64249 -4.97461,-7.01592 -4.97461,-11.36914 0,-9.95019 12.52654,-13.14743 12.9707,-13.23633 z m -454.95703,0.53516 c 0.44416,0 6.04121,-8.5e-4 9.86133,3.73047 2.39876,2.30987 3.64258,5.50896 3.64257,9.41796 v 31.98243 c 0,5.41931 -2.39771,9.68329 -6.83984,11.90429 -3.1982,1.51032 -6.30867,1.59961 -6.66406,1.59961 -4.61977,-0.0889 -13.14844,-3.1095 -13.14844,-13.5039 v -31.98243 c 0,-5.24162 2.39882,-9.41664 6.75195,-11.54882 3.02068,-1.51022 5.95222,-1.59961 6.39649,-1.59961 z m 28.16211,0 h 5.33203 v 5.33007 h -5.33203 z M 250,763.38867 h 2.66406 c 2.75415,0 8.44106,2e-5 13.59375,1.86524 6.75202,2.3987 10.39453,7.28619 10.39453,14.12695 0,12.7931 -16.25638,22.74305 -21.32031,25.58594 v 17.05664 H 250 Z m 91.95117,0 h 10.39453 c 3.19831,0 6.7519,0.0902 9.86133,1.33399 4.17552,1.59913 6.39649,4.88613 6.39649,9.50586 0,3.55364 -2.75548,7.46121 -8.26368,11.81445 5.5082,5.86349 8.26368,17.05849 8.26368,33.31641 v 2.66406 h -5.33008 v -2.66406 c 0,-19.01199 -3.91009,-26.83101 -7.19727,-30.0293 l -0.0879,-0.17578 c -3.5537,2.30986 -6.8413,4.17509 -8.70703,5.15234 v 27.7168 h -5.33008 z m 109.36328,0 h 2.66407 c 2.75404,0 8.44093,2e-5 13.59375,1.86524 6.75191,2.3987 10.39453,7.28619 10.39453,14.12695 0,12.7931 -16.25823,22.74305 -21.32227,25.58594 v 17.05664 h -5.33008 z m 30.65039,0 h 10.39454 c 3.1983,0 6.75384,0.0902 9.86328,1.33399 4.17561,1.59913 6.39453,4.88613 6.39453,9.50586 0,3.55364 -2.75362,7.46121 -8.26172,11.81445 5.5081,5.86349 8.26172,17.05849 8.26172,33.31641 v 2.66406 h -5.33008 v -2.66406 c 0,-19.01199 -3.90844,-26.83101 -7.19531,-30.0293 l -0.0898,-0.17578 c -3.55359,2.30986 -6.83946,4.17509 -8.70507,5.15234 v 27.7168 h -5.33204 z m 30.65039,0 h 5.33008 v 58.63477 h -5.33008 z m 9.32813,0 h 26.65234 v 5.33008 h -10.48437 v 53.30469 h -5.33008 v -53.30469 h -10.83789 z m 78.71289,0 h 5.33203 v 53.30664 h 15.99024 v -13.59375 h 5.33007 v 18.92188 h -26.65234 z m 30.65039,0 h 5.33203 v 58.63477 h -5.33203 z m 9.32813,0 h 2.66601 c 0.17775,0 4.26384,2e-4 8.43945,0.71094 6.75193,1.15494 10.21875,3.55381 10.21875,7.28516 0,3.10942 -1.33547,6.12958 -2.8457,8.43945 0.88842,0.44422 1.77847,1.06661 2.57813,1.77734 3.73124,3.28712 5.5957,7.90603 5.5957,13.76953 0,13.68153 -6.57482,20.25775 -11.99414,23.36719 -5.86329,3.28712 -11.72567,3.28516 -11.99219,3.28516 h -2.66601 z m 30.65039,0 h 10.39453 c 3.19821,0 6.75384,0.0902 9.86328,1.33399 4.17551,1.59913 6.39453,4.88613 6.39453,9.50586 0,3.55364 -2.75351,7.46121 -8.26172,11.81445 5.50821,5.86349 8.26172,17.05849 8.26172,33.31641 v 2.66406 h -5.33008 v -2.66406 c 0,-19.01199 -3.90812,-26.83101 -7.19531,-30.0293 l -0.0898,-0.17578 c -3.55371,2.30986 -6.83935,4.17509 -8.70508,5.15234 v 27.7168 h -5.33203 z m -359.98243,0.0879 h 5.32813 v 42.55664 c 0,10.12788 7.1068,10.75 8.08398,10.75 0.88843,0 7.90821,-0.62212 7.90821,-10.75 v -42.55664 h 5.33203 v 42.55664 c 0,8.17337 -3.55562,12.08159 -6.57617,13.94727 -3.19832,2.0433 -6.30584,2.13281 -6.75,2.13281 -0.35539,0 -3.46672,-0.0895 -6.75391,-2.13281 -3.02056,-1.86568 -6.57227,-5.86274 -6.57227,-13.94727 z m 87.95118,0.0899 h 26.65234 v 5.33007 h -21.32227 v 7.9961 h 18.47852 v 5.33008 h -18.47852 v 2.31054 c 0,5.68583 1.59857,10.21772 4.79688,13.41602 5.41911,5.33043 13.77253,5.41992 13.86133,5.41992 h 2.66406 v 5.32813 h -2.66406 c -0.44416,0 -10.57523,8.6e-4 -17.59375,-7.01758 -4.26439,-4.17553 -6.39453,-9.95036 -6.39453,-17.14649 z m 302.68164,0 h 26.65234 v 5.33007 h -21.32031 v 7.9961 h 18.47851 v 5.33008 h -18.47851 v 2.31054 c 0,5.68583 1.59856,10.21772 4.79687,13.41602 5.41934,5.33043 13.76873,5.41992 13.85743,5.41992 h 2.66601 v 5.32813 h -2.66601 c -0.44417,0 -10.57142,8.6e-4 -17.58985,-7.01758 -4.26417,-4.17553 -6.39648,-9.95036 -6.39648,-17.14649 z m -408.22461,4.88671 c -1.51034,0.0889 -7.72852,0.71107 -7.72852,7.81836 v 31.98243 c 0,7.5515 6.92895,8.17382 7.90625,8.17382 1.42147,0 8.08399,-0.53349 8.08399,-8.17382 v -31.98243 c 0,-2.39871 -0.62055,-4.26503 -1.95313,-5.59765 -2.30988,-2.22103 -6.13086,-2.22071 -6.13086,-2.22071 z m 53.57031,0.26563 v 19.54687 c 8.26223,-4.61972 15.99219,-10.74998 15.99219,-14.0371 0,-4.08668 -2.75428,-5.50977 -10.92774,-5.50977 z m 140.01563,0 v 19.54687 c 8.26225,-4.61972 15.99023,-10.74998 15.99023,-14.0371 0,-4.08668 -2.75435,-5.50977 -10.92773,-5.50977 z m 189.32031,0 v 19.54687 c 8.26205,-4.61972 15.99023,-10.74998 15.99023,-14.0371 0,-4.08668 -2.75435,-5.50977 -10.92773,-5.50977 z m -421.28516,0.0898 v 30.0293 c 6.48538,-4.08669 15.99024,-11.63903 15.99024,-19.45703 0,-6.75192 -5.06283,-10.12805 -15.99024,-10.57227 z m 201.3125,0 v 30.0293 c 6.4855,-4.08669 15.99219,-11.63903 15.99219,-19.45703 0,-6.75192 -5.06466,-10.12805 -15.99219,-10.57227 z m 189.32031,0 v 7.81836 c 2.13225,0 5.06439,0.17605 8.17383,1.06446 1.24382,-1.77682 2.48828,-4.17541 2.48828,-6.21875 -0.53303,-1.06609 -5.1539,-2.30869 -10.66211,-2.66407 z m -324.0039,2.31055 h 5.33203 v 5.33008 h -5.33203 z m -30.82617,2.66406 h 5.32812 v 5.33008 h -5.32812 z m 30.82617,5.33008 h 5.33203 v 5.33008 h -5.33203 z m -30.82617,2.66602 h 5.32812 v 5.33008 h -5.32812 z m 354.83007,0.17578 v 34.47265 c 5.15293,-0.88841 15.99414,-4.7987 15.99414,-21.05664 0,-4.26434 -1.24489,-7.46257 -3.73242,-9.68359 -3.64247,-3.28712 -9.15227,-3.73242 -12.26172,-3.73242 z m -354.83007,7.82031 h 5.32812 v 5.33008 h -5.32812 z m 0,7.99414 h 5.32812 v 5.33203 h -5.32812 z m 0,7.99609 h 5.32812 v 5.33008 h -5.32812 z m 116.29296,5.7754 h 10.48243 v 10.48242 h -10.48243 z m 302.68165,0 h 10.48437 v 10.48242 h -10.48437 z" />
</svg>
